<svg width="179" height="74" viewBox="0 0 179 74" fill="none" xmlns="http://www.w3.org/2000/svg">
<circle cx="44" cy="41" r="12" fill="#FF1E54"/>
<path d="M56.5 21L67.3253 39.75H45.6747L56.5 21Z" fill="white"/>
<path d="M73.7159 33.897V31.9091H84.1605V33.897H80.1143V45H77.7621V33.897H73.7159ZM85.0522 45V35.1818H87.2958V36.8182H87.3981C87.5771 36.2514 87.8839 35.8146 88.3185 35.5078C88.7575 35.1967 89.2582 35.0412 89.8207 35.0412C89.9485 35.0412 90.0913 35.0476 90.2489 35.0604C90.4109 35.0689 90.5451 35.0838 90.6516 35.1051V37.2337C90.5536 37.1996 90.3981 37.1697 90.185 37.1442C89.9762 37.1143 89.7738 37.0994 89.5778 37.0994C89.1559 37.0994 88.7766 37.1911 88.44 37.3743C88.1076 37.5533 87.8455 37.8026 87.6538 38.1222C87.462 38.4418 87.3661 38.8104 87.3661 39.228V45H85.0522ZM92.1889 45V35.1818H94.5028V45H92.1889ZM93.3523 33.7884C92.9858 33.7884 92.6705 33.6669 92.4062 33.424C92.142 33.1768 92.0099 32.8807 92.0099 32.5355C92.0099 32.1861 92.142 31.8899 92.4062 31.647C92.6705 31.3999 92.9858 31.2763 93.3523 31.2763C93.723 31.2763 94.0384 31.3999 94.2983 31.647C94.5625 31.8899 94.6946 32.1861 94.6946 32.5355C94.6946 32.8807 94.5625 33.1768 94.2983 33.424C94.0384 33.6669 93.723 33.7884 93.3523 33.7884ZM108.19 36.326H105.799C105.731 35.9339 105.605 35.5866 105.422 35.2841C105.239 34.9773 105.011 34.7173 104.738 34.5043C104.465 34.2912 104.154 34.1314 103.805 34.0249C103.46 33.9141 103.087 33.8587 102.686 33.8587C101.975 33.8587 101.344 34.0376 100.794 34.3956C100.244 34.7493 99.8141 35.2692 99.503 35.9553C99.1919 36.6371 99.0364 37.4702 99.0364 38.4545C99.0364 39.456 99.1919 40.2997 99.503 40.9858C99.8184 41.6676 100.249 42.1832 100.794 42.5327C101.344 42.8778 101.972 43.0504 102.68 43.0504C103.072 43.0504 103.438 42.9993 103.779 42.897C104.124 42.7905 104.433 42.6349 104.706 42.4304C104.983 42.2259 105.215 41.9744 105.403 41.6761C105.595 41.3778 105.727 41.0369 105.799 40.6534L108.19 40.6662C108.1 41.2884 107.906 41.8722 107.608 42.4176C107.314 42.9631 106.928 43.4446 106.451 43.8622C105.974 44.2756 105.416 44.5994 104.776 44.8338C104.137 45.0639 103.428 45.179 102.648 45.179C101.497 45.179 100.47 44.9126 99.5669 44.38C98.6635 43.8473 97.9519 43.0781 97.432 42.0724C96.9121 41.0668 96.6522 39.8608 96.6522 38.4545C96.6522 37.044 96.9142 35.8381 97.4384 34.8366C97.9625 33.831 98.6763 33.0618 99.5797 32.5291C100.483 31.9964 101.506 31.7301 102.648 31.7301C103.377 31.7301 104.054 31.8324 104.681 32.0369C105.307 32.2415 105.865 32.5419 106.355 32.9382C106.845 33.3303 107.248 33.8118 107.563 34.3828C107.883 34.9496 108.092 35.5973 108.19 36.326ZM110.259 45V35.1818H112.573V45H110.259ZM111.423 33.7884C111.056 33.7884 110.741 33.6669 110.477 33.424C110.212 33.1768 110.08 32.8807 110.08 32.5355C110.08 32.1861 110.212 31.8899 110.477 31.647C110.741 31.3999 111.056 31.2763 111.423 31.2763C111.793 31.2763 112.109 31.3999 112.369 31.647C112.633 31.8899 112.765 32.1861 112.765 32.5355C112.765 32.8807 112.633 33.1768 112.369 33.424C112.109 33.6669 111.793 33.7884 111.423 33.7884ZM114.953 45V35.1818H117.196V36.8182H117.298C117.477 36.2514 117.784 35.8146 118.219 35.5078C118.658 35.1967 119.159 35.0412 119.721 35.0412C119.849 35.0412 119.992 35.0476 120.149 35.0604C120.311 35.0689 120.445 35.0838 120.552 35.1051V37.2337C120.454 37.1996 120.298 37.1697 120.085 37.1442C119.877 37.1143 119.674 37.0994 119.478 37.0994C119.056 37.0994 118.677 37.1911 118.34 37.3743C118.008 37.5533 117.746 37.8026 117.554 38.1222C117.362 38.4418 117.267 38.8104 117.267 39.228V45H114.953ZM125.968 45.1918C124.988 45.1918 124.146 44.9766 123.443 44.5462C122.744 44.1158 122.205 43.5213 121.826 42.7628C121.451 42 121.263 41.1222 121.263 40.1293C121.263 39.1321 121.455 38.2521 121.838 37.4893C122.222 36.7223 122.763 36.1257 123.462 35.6996C124.165 35.2692 124.996 35.054 125.955 35.054C126.752 35.054 127.457 35.201 128.071 35.495C128.689 35.7848 129.181 36.196 129.547 36.7287C129.914 37.2571 130.123 37.875 130.174 38.5824H127.962C127.873 38.1094 127.659 37.7152 127.323 37.3999C126.99 37.0803 126.545 36.9205 125.987 36.9205C125.514 36.9205 125.098 37.0483 124.74 37.304C124.382 37.5554 124.103 37.9176 123.903 38.3906C123.707 38.8636 123.609 39.4304 123.609 40.0909C123.609 40.7599 123.707 41.3352 123.903 41.8168C124.099 42.294 124.374 42.6626 124.728 42.9226C125.086 43.1783 125.505 43.3061 125.987 43.3061C126.328 43.3061 126.632 43.2422 126.901 43.1143C127.174 42.9822 127.402 42.7926 127.585 42.5455C127.768 42.2983 127.894 41.9979 127.962 41.6442H130.174C130.118 42.3388 129.914 42.9545 129.56 43.4915C129.206 44.0241 128.725 44.4418 128.115 44.7443C127.506 45.0426 126.79 45.1918 125.968 45.1918ZM134.388 31.9091V45H132.074V31.9091H134.388ZM141.114 45.1918C140.129 45.1918 139.279 44.9872 138.563 44.5781C137.852 44.1648 137.304 43.581 136.92 42.8267C136.537 42.0682 136.345 41.1754 136.345 40.1484C136.345 39.1385 136.537 38.2521 136.92 37.4893C137.308 36.7223 137.849 36.1257 138.544 35.6996C139.239 35.2692 140.055 35.054 140.992 35.054C141.597 35.054 142.168 35.152 142.705 35.348C143.246 35.5398 143.724 35.8381 144.137 36.2429C144.555 36.6477 144.883 37.1634 145.121 37.7898C145.36 38.4119 145.479 39.1534 145.479 40.0142V40.7237H137.432V39.1641H143.261C143.257 38.7209 143.161 38.3267 142.974 37.9815C142.786 37.6321 142.524 37.3572 142.188 37.157C141.855 36.9567 141.467 36.8565 141.024 36.8565C140.551 36.8565 140.136 36.9716 139.778 37.2017C139.42 37.4276 139.141 37.7259 138.94 38.0966C138.744 38.4631 138.644 38.8658 138.64 39.3047V40.6662C138.64 41.2372 138.744 41.7273 138.953 42.1364C139.162 42.5412 139.454 42.8523 139.829 43.0696C140.204 43.2827 140.643 43.3892 141.146 43.3892C141.482 43.3892 141.787 43.3423 142.06 43.2486C142.332 43.1506 142.569 43.0078 142.769 42.8203C142.969 42.6328 143.121 42.4006 143.223 42.1236L145.384 42.3665C145.247 42.9375 144.987 43.4361 144.604 43.8622C144.224 44.2841 143.739 44.6122 143.146 44.8466C142.554 45.0767 141.876 45.1918 141.114 45.1918Z" fill="white"/>
</svg>
